<svg version="1.1" width="290" height="192" viewBox="-1 -1 290 192" xmlns="http://www.w3.org/2000/svg" xmlns:xlink="http://www.w3.org/1999/xlink">
  <!-- Exported by Scratch - http://scratch.mit.edu/ -->
  <path id="ID0.6028816159814596" fill="#CC7700" stroke="#000000" stroke-width="2" stroke-linecap="round" d="M 164.500 102.500 C 187.147 95.166 213.184 97.032 235.500 103.500 C 252.419 108.405 260.873 130.212 278 135 C 310.332 144.037 346.558 131.114 378.500 143 C 389.605 147.134 387.882 165.206 389 177 C 390.133 189.035 394.717 204.645 386.050 212.500 C 374.465 222.828 355.591 219.932 340.550 220.500 C 311.739 221.578 283.108 218.439 254 218 C 241.514 217.809 228.411 214.255 216.500 218 C 211.616 219.535 213.657 228.857 209.500 232 C 205.711 234.724 200.982 234.075 196.500 234 C 192.194 233.906 187.426 234.437 183.500 231.500 C 179.293 228.207 181.156 218.789 176.500 217 C 161.445 211.213 142.261 220.256 128.500 210.500 C 118.730 203.353 121.442 187.072 121.500 175 C 120.934 162.859 120.633 149.430 127 139 C 136.086 124.112 148.132 107.931 164.500 102.500 Z " transform="matrix(1, 0, 0, 1, -104.05, -96.5)"/>
  <path id="ID0.193411473184824" fill="none" stroke="#FF0000" stroke-width="15" stroke-linecap="round" d="M 210 66 C 210 66 191.514 70.070 183 74 C 165.409 82.119 146.625 89.293 132 102 C 125.232 107.881 120.709 118.127 122 127 C 123.677 138.529 131.389 149.152 140 157 C 158.228 173.613 185.718 179.643 201 199 C 208.019 207.890 205.734 223.232 200 233 C 186.756 255.564 172.113 283.662 147 291 C 114.451 300.511 46 278 46 278 " transform="matrix(0.4191540479660034, 0, 0, 0.4191540479660034, -15.25, -11)"/>
  <text id="ID0.328722289763391" fill="#0251FF" x="191" y="160.25" text-anchor="start" font-family="Gloria" font-size="22" transform="matrix(1.7505995035171509, 0, 0, 1.7505995035171509, 73, 23.25)">cribbleBlox</text>
  <path id="ID0.6450196173973382" fill="#7F00FF" stroke="#000000" stroke-width="2" stroke-linecap="round" d="M 245.500 240.500 C 256.984 236.966 269.701 241.454 281.500 241.500 C 289.363 242.121 296.782 242.291 304.500 242.500 C 320.888 243.015 335.847 243.276 351.500 243.500 C 371.492 243.785 392.482 239.889 412.500 243.500 C 417.429 244.482 413.586 251.159 414 255 C 414.379 259.426 416.341 263.985 416 268.500 C 415.423 274.371 416.280 280.874 413 285.500 C 410.387 288.732 413.441 288.376 401 288.500 C 351.235 288.997 302.600 286.398 254 287 C 241.196 287.180 245.315 287.840 242.500 290.500 C 238.807 294.063 239.794 301.378 235.500 304 C 230.338 306.901 226.874 305.875 222.500 306 C 218.619 305.875 215.791 306.987 211 304 C 206.301 300.690 208.132 290.942 203 288.500 C 195.327 284.851 185.967 288.067 177.500 287.500 C 169.628 286.971 160.661 288.274 154 284.500 C 149.404 281.888 147.394 275.824 146.500 270.500 C 145.158 262.445 146.114 253.823 148 246 C 148.780 242.764 150.723 238.840 154 238 C 162.638 235.930 169.343 237.354 177 237.500 C 184.350 237.854 191.245 235.581 199 239.500 C 203.908 242.218 201.212 251.866 206 255 C 211.181 258.386 218.304 256.895 224.500 257 C 228.628 257.036 233.309 257.264 236.500 254.500 C 240.927 251.281 239.989 242.201 245.500 240.500 Z " transform="matrix(1, 0, 0, 1, -128, -116)"/>
  <text id="ID0.3671203092671931" fill="#FFFFFF" x="140.5" y="244.75" text-anchor="start" font-family="Helvetica" font-size="22" transform="matrix(0.9306759238243103, 0, 0, 0.9306759238243103, 23.9, 136.65)">Based on Scratch by MIT</text>
</svg>